<?xml version="1.0" standalone="no"?><!DOCTYPE svg PUBLIC "-//W3C//DTD SVG 1.1//EN" "http://www.w3.org/Graphics/SVG/1.1/DTD/svg11.dtd"><svg class="icon" width="200px" height="200.00px" viewBox="0 0 1024 1024" version="1.1" xmlns="http://www.w3.org/2000/svg"><path fill="#7F7F7F" d="M511.9 65.2C265.1 65.2 65 265.1 65 511.5s200.1 446.3 446.9 446.3c246.8 0 446.9-199.8 446.9-446.3 0-246.4-200.1-446.3-446.9-446.3z m0 816.9c-204.9 0-371.1-166-371.1-370.6C140.8 306.9 307 141 511.9 141 716.8 141 883 306.9 883 511.5c-0.1 204.6-166.2 370.6-371.1 370.6z m0 0M709.8 296.2c-8-3.1-16.7-2.9-24.4 0.5L415 414.9 296.8 684.8c-3.6 8.2-3.6 17.4 0 25.6 3.4 7.8 9.7 13.8 17.7 16.9 3.8 1.5 7.7 2.2 11.7 2.2 4.4 0 8.7-0.9 12.8-2.7l270.3-118.1 118.2-269.9c3.6-8.2 3.6-17.4 0-25.6-3.6-7.9-9.8-13.9-17.7-17zM576.5 533.8l26.1 26.1-42.3 42.2-26.1-26.1-154 67.3 67.3-153.8-25.4-25.5 42.3-42.2 25.4 25.4L643.9 380l-67.4 153.8z m0 0M464.4 421.9l-42.3 42.2 25.4 25.5 86.7 86.5 26.1 26.1 42.3-42.2-26.1-26.1-86.6-86.6-25.5-25.4z m0 0" /></svg>