<?xml version="1.0" standalone="no"?><!DOCTYPE svg PUBLIC "-//W3C//DTD SVG 1.1//EN" "http://www.w3.org/Graphics/SVG/1.1/DTD/svg11.dtd"><svg class="icon" width="200px" height="200.00px" viewBox="0 0 1024 1024" version="1.1" xmlns="http://www.w3.org/2000/svg"><path fill="#ffffff" d="M505.6 989.824a396.16 396.16 0 0 1-396.8-396.8c0-89.92 40.32-205.12 127.808-249.472 6.4-4.032 12.672-2.304 19.008 0 6.4 4.032 10.944 10.944 10.944 17.28 0 0 8.64 82.944 44.928 145.152v-4.032c-4.608-132.48-10.88-380.16 244.8-478.08 6.4-2.304 14.976-2.304 19.008 2.304a19.84 19.84 0 0 1 8.64 17.28v19.008c0 136.512 0 234.432 46.72 320.256 12.608-66.24 57.6-132.48 155.52-160.128 6.272-2.304 12.608 0 18.944 4.032a19.84 19.84 0 0 1 8.64 17.28c0 85.248 23.68 140.544 46.72 194.112 21.248 46.72 40.32 91.584 40.32 153.792a395.648 395.648 0 0 1-395.2 398.08z" /></svg>