<?xml version="1.0" standalone="no"?><!DOCTYPE svg PUBLIC "-//W3C//DTD SVG 1.1//EN" "http://www.w3.org/Graphics/SVG/1.1/DTD/svg11.dtd"><svg class="icon" width="200px" height="200.00px" viewBox="0 0 1024 1024" version="1.1" xmlns="http://www.w3.org/2000/svg"><path fill="#DE868F" d="M545.833 621.298c-36.088 0-54.132 27.066-54.132 67.665 0 45.11 18.044 67.665 54.132 67.665 36.088 0 54.132-22.555 54.132-67.665-4.511-40.599-18.044-63.154-54.132-67.665z"  /><path fill="#DE868F" d="M739.806 201.774c22.555 54.132 27.066 135.33-18.044 180.441-76.687-297.727-270.661-360.881-270.661-360.881 22.555 153.374-81.198 320.282-184.952 446.59-4.511-63.154-9.022-103.753-40.599-162.396-9.022 112.775-90.22 202.996-117.286 311.26-18.044 94.731-4.511 180.441 63.154 257.128 108.264 103.753 387.947 234.573 672.141 4.511 261.639-266.15-40.599-631.542-103.753-676.652zM415.013 797.228h-49.621v-85.709h-90.22v85.709h-49.621v-212.018h49.621v85.709h94.731v-85.709h49.621l-0 212.018zM545.833 801.739c-67.665-4.511-103.753-40.599-108.264-108.264 4.511-72.176 40.599-108.264 108.264-112.775 67.665 4.511 99.242 40.599 103.753 112.775 0 67.665-36.088 103.753-103.753 108.264zM789.427 625.809v175.93h-49.621v-175.93h-67.665v-40.599h184.952v40.599h-67.665z"  /></svg>