<?xml version="1.0" standalone="no"?><!DOCTYPE svg PUBLIC "-//W3C//DTD SVG 1.1//EN" "http://www.w3.org/Graphics/SVG/1.1/DTD/svg11.dtd"><svg class="icon" width="200px" height="200.00px" viewBox="0 0 1024 1024" version="1.1" xmlns="http://www.w3.org/2000/svg"><path fill="#ffffff" d="M620.029 534.28H953.43c37.243 0 67.478 30.243 67.478 67.476V951.41c0 37.237-30.236 67.473-67.478 67.473H620.03c-37.238 0-67.481-30.236-67.481-67.473V601.756c0-37.234 30.244-67.476 67.48-67.476zM620.029 6.535H953.43c37.243 0 67.478 30.238 67.478 67.513v333.367c0 37.314-30.236 67.476-67.478 67.476H620.03c-37.238 0-67.481-30.162-67.481-67.476V74.05c0-37.277 30.244-67.515 67.48-67.515zM72.027 534.28h329.326c37.275 0 67.473 30.243 67.473 67.476V951.41c0 37.237-30.198 67.473-67.473 67.473H72.027c-37.274 0-67.475-30.236-67.475-67.473V601.756c0-37.234 30.201-67.476 67.475-67.476zM72.027 6.535h329.326c37.275 0 67.473 30.238 67.473 67.513v333.367c0 37.314-30.198 67.476-67.473 67.476H72.027c-37.274 0-67.475-30.162-67.475-67.476V74.05c0-37.277 30.201-67.515 67.475-67.515z" /></svg>