<?xml version="1.0" standalone="no"?><!DOCTYPE svg PUBLIC "-//W3C//DTD SVG 1.1//EN" "http://www.w3.org/Graphics/SVG/1.1/DTD/svg11.dtd"><svg class="icon" width="200px" height="200.00px" viewBox="0 0 1024 1024" version="1.1" xmlns="http://www.w3.org/2000/svg"><path fill="#4095E5" d="M511.8 63.6c-247.4 0-448 200.6-448 448s200.6 448 448 448 448-200.6 448-448-200.6-448-448-448z m101.9 246.7c23-8 49.6-1.4 67.9 14.1 24.7 19.6 32.6 55.4 20.9 84.3-14.9 36.3-60.6 55-96.5 38.7-25.5-10.2-42-36.2-44.7-63.1-1.2-32.4 20.9-64.9 52.4-74z m-308.1 30.6c5.3-21.7 22.2-40.2 43-48.3 31.6-13.2 70.6 1 87.2 30.6 13.9 23.6 12.6 55.1-3.7 77.3-19.2 28.1-59.7 37.8-89.8 22.3-29.8-13.8-45.9-50.7-36.7-81.9z m550.3 318.8c-33.9 1.3-67.9-0.2-101.8 0.8-0.7 21 0.5 42.5-4.5 63.1-1.9 8.5-11.1 12.6-19.2 12-63.4-0.1-126.8 0.1-190.1-0.1-8.4 0.2-17.6-5.4-17.9-14.6-3.1-20-3-40.4-3-60.6-114.9-0.1-229.9 0-344.8 0-11.5 0.2-22.7-10.6-20.2-22.6 0-7.2 7.2-11.1 11.4-16 32.3-0.3 64.6 0 97-0.2-0.2-13.8 0-27.7 1.3-41.5 5-34.9 14.5-71 38.7-97.8 39.1-40.9 114.4-38.1 149 7.3 27.7 37.6 35.4 86.2 33.9 131.9 11.6 0.3 23.3 0.4 34.9 0.2 4.3-40.8 13.6-84.2 42.2-115.4 19.5-21.5 49.3-31 77.8-28.6 34.9-1 67.1 21.1 83.7 50.9 16.1 28.3 23 60.8 26.3 93 34.9 0.5 69.8-0.3 104.8 0.4 18.5 3.4 19.3 33.7 0.5 37.8z"  /></svg>