<?xml version="1.0" standalone="no"?><!DOCTYPE svg PUBLIC "-//W3C//DTD SVG 1.1//EN" "http://www.w3.org/Graphics/SVG/1.1/DTD/svg11.dtd"><svg class="icon" width="200px" height="200.00px" viewBox="0 0 1024 1024" version="1.1" xmlns="http://www.w3.org/2000/svg"><path fill="#7F7F7F" d="M490.688 192q0-61.824 43.712-105.6Q578.176 42.688 640 42.688q61.824 0 105.6 43.712 43.712 43.776 43.712 105.6 0 61.824-43.712 105.6-43.776 43.712-105.6 43.712-61.824 0-105.6-43.712-43.712-43.776-43.712-105.6zM576 192q0 26.496 18.752 45.248T640 256q26.496 0 45.248-18.752T704 192q0-26.496-18.752-45.248T640 128q-26.496 0-45.248 18.752T576 192zM620.288 822.4l-39.104-136.96-139.648-119.68a42.688 42.688 0 0 1-10.368-51.52l42.816-85.568-103.04-38.656-108.992 90.752a42.688 42.688 0 0 1-54.592-65.536l128-106.688a42.688 42.688 0 0 1 42.24-7.168l170.688 64a42.688 42.688 0 0 1 23.232 59.008l-49.152 98.24 124.096 106.304c6.336 5.44 10.88 12.672 13.248 20.672l42.624 149.376a42.688 42.688 0 1 1-82.048 23.424zM197.312 640.32l143.616 17.92L433.152 510.72a42.688 42.688 0 1 1 72.32 45.248l-106.624 170.624a42.688 42.688 0 0 1-41.472 19.776l-170.688-21.376a42.688 42.688 0 0 1 10.624-84.672zM977.664 763.968l-85.312 192a42.688 42.688 0 0 1-39.04 25.344H128A42.688 42.688 0 1 1 128 896h697.6l74.048-166.656a42.688 42.688 0 0 1 78.016 34.624zM845.44 509.824l-128 42.624a42.688 42.688 0 0 1-36.032-4.288L510.72 441.6a42.688 42.688 0 0 1 45.248-72.384l153.6 96 108.928-36.288a42.688 42.688 0 0 1 27.008 80.96z" /></svg>