<?xml version="1.0" standalone="no"?><!DOCTYPE svg PUBLIC "-//W3C//DTD SVG 1.1//EN" "http://www.w3.org/Graphics/SVG/1.1/DTD/svg11.dtd"><svg class="icon" width="200px" height="200.00px" viewBox="0 0 1024 1024" version="1.1" xmlns="http://www.w3.org/2000/svg"><path fill="#7F7F7F" d="M512 81.92a204.88192 204.88192 0 0 1 200.704 163.84H880.64a40.96 40.96 0 0 1 40.96 40.96v655.36a40.96 40.96 0 0 1-40.96 40.96H143.36a40.96 40.96 0 0 1-40.96-40.96V286.72a40.96 40.96 0 0 1 40.96-40.96h167.936A204.88192 204.88192 0 0 1 512 81.92z m327.68 245.76h-122.88v61.44a20.48 20.48 0 0 1-20.48 20.48h-40.96a20.48 20.48 0 0 1-20.48-20.48V327.68H389.12v61.44a20.48 20.48 0 0 1-20.48 20.48h-40.96a20.48 20.48 0 0 1-20.48-20.48V327.68H184.32v573.44h655.36V327.68z m-327.68-163.84a122.92096 122.92096 0 0 0-115.9168 81.92h231.8336A122.92096 122.92096 0 0 0 512 163.84z"  opacity=".65" /></svg>