<?xml version="1.0" standalone="no"?><!DOCTYPE svg PUBLIC "-//W3C//DTD SVG 1.1//EN" "http://www.w3.org/Graphics/SVG/1.1/DTD/svg11.dtd"><svg class="icon" width="200px" height="200.00px" viewBox="0 0 1024 1024" version="1.1" xmlns="http://www.w3.org/2000/svg"><path fill="#ffffff" d="M760.104774 609.122095a228.420786 228.420786 0 0 0-284.228137-6.921842 432.615125 432.615125 0 0 1-25.956907-105.55809 968.625264 968.625264 0 0 1-17.304605-141.465146 302.830587 302.830587 0 0 1 17.304605-81.764258A23.361217 23.361217 0 0 1 475.876637 259.569075a216.307562 216.307562 0 0 1 20.332911 17.73722 241.831855 241.831855 0 0 0 43.261512 27.254753 129.784537 129.784537 0 0 0 79.168568 4.758766c25.091677-6.489227 48.885509-82.196874 63.594424-90.849176 27.687368-16.439375 27.254753-24.226447 27.254752-36.772286a89.983946 89.983946 0 0 0-26.822137-47.587663c-17.304605-17.304605-25.524292-43.261512-45.424588-57.537812s-65.324884-13.411069-113.777778-13.411069a346.0921 346.0921 0 0 0-134.110689 19.900296 235.342628 235.342628 0 0 0-43.261512 22.495986 73.111956 73.111956 0 0 0-21.198141 19.900296l-9.950148 16.00676c-6.056612 9.950148-6.489227 11.680608-13.411069 24.659062a1238.577102 1238.577102 0 0 0-60.566118 126.323616 1060.33967 1060.33967 0 0 0-76.140262 549.853824 25.524292 25.524292 0 0 0 9.950148 16.87199 575.378116 575.378116 0 0 0 597.441487 73.544571 577.541191 577.541191 0 0 0 67.920575-35.041825l26.389523-16.439375c28.552598-22.495986 49.750739-43.261512 0-142.762991a385.460076 385.460076 0 0 0-106.855936-129.784538z m0 0"  /></svg>