<?xml version="1.0" standalone="no"?><!DOCTYPE svg PUBLIC "-//W3C//DTD SVG 1.1//EN" "http://www.w3.org/Graphics/SVG/1.1/DTD/svg11.dtd"><svg class="icon" width="200px" height="200.00px" viewBox="0 0 1024 1024" version="1.1" xmlns="http://www.w3.org/2000/svg"><path fill="#ffffff" d="M555.509445 224.442772c3.858888-3.261277 8.016581-0.294712 8.016581-0.294712s4.16281-5.92699 11.266601-14.530948c7.119141-8.591679 25.805736-21.650089 44.49233-26.102495 18.677385-4.437056 51.996235-24.801872 65.437361-30.340005 13.44522-5.54018 31.629371-15.025205 38.747489-21.741163 7.108908-6.721075 39.937594-18.978237 60.909232-24.52865 20.946055-5.523807 63.995523-22.283516 70.375837-24.217564 6.371104-1.914606 9.925047-9.331529 11.55722-13.189394 1.636267-3.856841 9.934257-8.311293 9.934257-8.311293s1.330298-7.108908 1.330298-12.744255c0-5.638417 3.118014-15.578814 5.341658-18.543332 2.224668-2.958378 6.67605-5.783727 6.818289-8.15575 0.150426-2.37407 4.754281-4.445242 4.754281-4.445242s0.575098-1.483794 2.218528-4.301979c1.630127-2.816139 4.592598-1.485841 4.592598-1.485841s1.183965-3.118014 4.166903-3.857864c2.961448-0.743944 5.187139 0.447185 5.187139 0.447185s1.473561-2.520403 4.154623-0.743944c2.662643 1.782599 2.01796 3.25616 2.01796 3.25616s7.710612-2.174526 9.290597 3.564175c1.599428 5.731538-8.490372 13.245675-11.649318 20.561291-3.158946 7.311523 0.191358 19.765159 0.191358 19.765159s3.564175 2.378164 4.755304 4.15053c1.173732 1.789763 4.935406 0.400113 8.308223 4.160763 3.351328 3.75758 1.771343 10.083659 1.771343 10.083659s2.566452-0.401136 2.566452 3.559059c0 3.949962-1.76725 6.321986-1.76725 6.321986s1.569752 2.181689 1.569752 6.916527c0 4.756327-5.134951 13.654998-5.134951 13.654998s3.060709 14.334473 3.356444 32.122605c0.300852 17.791202 10.084683 56.44864 13.650905 68.313875 3.560082 11.860119 16.213263 67.809385 18.183128 77.890998 1.989307 10.082636 4.353145 26.492374 5.142114 30.451546 0.800225 3.954055 1.590218 25.897833-1.38351 30.839379-2.960425 4.938476-9.882068 15.028275-16.792455 21.35947-6.927783 6.314823-17.605983 20.750603-18.201547 20.750603-0.598634 0 1.376347 7.711636 2.570545 14.633279 1.179872 6.91755 3.352351 24.308639 5.342682 35.986609 1.973958 11.651364 7.311523 44.673455 4.541433 48.441269-2.764973 3.750417-1.974981 8.68173-2.379187 17.582447-0.385786 8.904811-7.119141 4.938476-8.699126 6.131651-1.569752 1.179872-4.737908 1.179872-6.120394-2.37407-1.391696-3.566222-1.781576-2.378164-4.750187-2.957355-2.966565-0.608867-7.710612-4.757351-8.3072-8.711406-0.592494-3.954055-2.78237-2.564405-6.126534-2.772136-3.367701-0.187265-5.934153-2.765997-5.934153-4.334725 0-1.591241-1.579985-1.591241-7.909134-2.564405-6.330172-1.001817-11.171434-4.352121-8.797363-8.513908 2.365884-4.143367-19.279089 0.599657-32.034601 2.974751-12.746302 2.372024-58.113559 5.042853-58.113559 5.042853 6.510274 10.670014 1.470491 24.608467 1.470491 24.608467s32.035624 275.81479 32.627095 285.687648c0.597611 9.888208-13.44829 7.721869-13.44829 7.721869s-0.187265 4.542456-0.394996 10.865465c-0.187265 6.333242-15.214517 4.546549-15.214517 4.546549s0 3.164063 1.183965 7.118118c1.180895 3.960195-30.256094 22.541389-30.256094 22.541389s-0.597611 2.970658-0.597611 10.68127c0 7.711636-14.226003 45.281299-20.951171 63.86147-6.723122 18.570961-8.31334 39.331797-8.31334 49.227168 0 9.884115 4.748141 23.517623 4.155646 30.247908-0.579191 6.729262-13.052271 8.29799-18.9854 7.503904-5.912663-0.76441-20.75265 0.608867-28.857235 2.192945-8.103562 1.579985-35.996842 3.954055-41.12463 5.143137-5.14723 1.178849-10.68127-1.88493-14.739702-1.490957-4.045129 0.394996-4.938476 2.474354-7.81192 2.171456-2.855024-0.300852-5.139044-2.171456-5.139044-2.171456s-0.876973 3.170203-5.539156 1.984191c-4.63967-1.194198-4.143367-3.185552-4.143367-3.185552s-1.385557 2.303462-4.848425 1.397836c-3.457752-0.899486-3.457752-2.664689-3.457752-2.664689s-2.070148 1.87572-4.54348 0.192382c-2.470261-1.674129 0-3.046383 0-3.046383-4.157693-0.10847-4.853541-3.272533-4.449335-5.652743 0.387833-2.367931 4.15974-5.091972 6.816243-2.867304 2.668783 2.218528 5.933129-1.284249 13.062504-4.063549 7.098675-2.759857 18.576077-11.048637 40.321334-19.766183 21.751397-8.688893 28.478612-31.624255 32.628118-45.861514 4.14439-14.237259 2.664689-63.174831 2.664689-63.174831l-4.154623-0.280386c0 0 2.275833-21.958104 0.691755-33.026184-1.579985-11.088546 0.201591-46.474474 3.761674-60.700477 3.554966-14.237259 0-19.568684-7.710612-31.438013-7.707542-11.873422-5.14416-53.779857-17.004279-81.46029-11.861142-27.671223-20.363793-87.886653-20.954241-93.517907-0.602727-5.638417-0.889253-8.31027 1.478677-10.970866 2.379187-2.669806-2.367931-3.26537-6.821359-8.596795-4.442172-5.340635-6.821359-11.5695-6.821359-11.5695s-7.715729 0-10.087753-5.630231c-2.367931-5.637394-13.632485-5.037736-24.315802-8.901741-10.676154-3.852748-27.293623-17.495466-35.875069-27.577079-8.616238-10.078543-22.251793-21.639856-33.521464-27.281343-11.259438-5.628184-26.983561-23.140023-34.090423-29.656437-7.129374-6.5246-21.964244-19.284205-30.56411-26.994818-8.596795-7.711636-10.673084-32.91976-10.673084-32.91976s-11.262508-14.227026-18.383696-20.465101c-7.119141-6.230911-21.357424-13.933337-31.733749-14.827707-10.381441-0.889253-48.040133-17.495466-57.833173-24.918529-9.784854-7.40669-50.41318-34.990932-55.756885-38.251186-5.342682-3.255137-42.999326-11.5695-54.56064-13.053294-11.56029-1.477654-53.376675-15.109116-70.878281-24.618701-17.499559-9.493212-22.683628-8.875135-28.16855-6.965645-5.498224 1.927909-19.575848-0.726547-26.258037-0.88823-6.671956-0.147356-12.899798 0.88823-20.018939 3.416819-7.118118 2.51324-21.202904 3.416819-22.234397 0.288572-1.039679-3.107781 9.928117-4.726651 16.163121-7.109931 6.226818-2.368954 10.524704-5.338588 10.082636-6.964622-0.452301-1.629103-6.523577-0.155543-10.384511-0.155543-3.857864 0-13.048177-0.148379-18.687618 1.192152-5.630231 1.335415-14.525831 1.335415-14.824637-1.483794-0.300852-2.816139 1.480724-5.034666 7.269567-5.338588 5.773494-0.286526 21.639856-4.448312 28.16241-4.895497 6.523577-0.436952-1.042749-1.63115-5.335519-1.63115-4.294816 0-12.307304 0.447185-19.420305 2.51938-7.126304 2.086521-13.053294 1.49198-13.647835-1.178849-0.587378-2.675946 2.52552-5.348821 11.860119-7.42204 9.347902-2.071172 20.462031-4.2897 26.103518-4.443196 5.63944-0.150426 1.487887-2.37407-1.623987-2.37407s-9.937326-1.920746-16.318664-1.920746c-6.362918 0-16.994046 2.868327-16.994046-4.64581 0-7.519254 46.857191-3.563152 56.555064-3.563152 9.67843 0 38.149878 12.257162 46.851051 14.236236 8.698103 1.968841 22.529109 3.955078 32.221866 6.726192 9.685593 2.76702 60.105936 8.694009 72.754001 8.498558 12.652158-0.188288 34.606169 8.113795 46.858214 16.010649 12.256138 7.91732 54.763255 20.36277 65.830311 24.328082 11.084453 3.950985 31.639604 6.323009 44.490284 6.91448 12.841469 0.596588 31.637558 13.446243 31.637558 13.446243s2.171456-2.37714 5.731538-2.963495c3.554966-0.589424 10.083659-6.336312 12.455683-8.900717 2.376117-2.566452 2.563382-4.145413 1.376347-6.124488-1.173732-1.980097-2.361791-8.30106-2.361791-8.30106s-20.964474-0.599657-30.849612 1.378393c-9.885138 1.974981-13.637602-9.689686-12.45773-15.026228 1.188058-5.329379-2.564405-6.721075-4.931313-8.502651-2.37714-1.777483-2.980891-1.777483 0-3.959172 2.959402-2.165316 0-2.165316-2.181689-3.154853-2.164293-0.994654-0.984421-3.356444 1.38965-8.698103 2.372024-5.339612-5.934153-2.969635-8.700149-4.747117-2.772136-1.787716 1.576915-12.854772 4.354168-19.778462 2.75474-6.910387-0.800225-12.653181-1.000793-24.112164-0.202615-11.483542 11.06501-30.447453 11.06501-30.447453s0.208754-4.347005 4.561899-9.891278c4.341888-5.53404 31.036877-13.840216 54.757115-14.429641 23.736611-0.587378 33.024138 12.850679 33.024138 12.850679 5.929036-6.131651 9.093099-1.877767 9.093099-1.877767s3.853771-6.514367 10.670014-3.25923c6.821359 3.25923 16.010649 4.736884 18.691711 28.761044C560.542064 170.174797 553.986765 225.737254 555.509445 224.442772M864.04752 117.77538c-3.366677-2.756787-28.870538 12.859889-37.56864 17.978467-8.699126 5.14109-41.522696 22.545482-48.834218 24.52558-7.321756 1.971911-40.540322 15.406898-43.896766 17.588587-3.355421 2.182712-26.689872 34.411741-39.343053 48.837288-12.646018 14.44499-52.591799 30.260188-56.94392 32.625048-4.345981 2.367931-3.751441 4.736884-1.568728 9.094122 2.159176 4.345981 0.381693 16.61133 0.381693 16.61133s4.16281 2.181689-0.589424 10.077519c-4.747117 7.910157 5.139044 9.897418 4.544503 11.476379-0.589424 1.576915-1.976004 3.353374 1.781576 6.714935 3.751441 3.351328 3.751441 7.710612 1.771343 12.860912-1.973958 5.133927 0.589424 3.752464 4.938476 6.321986 4.352121 2.563382 6.326079 10.665921 5.342682 13.83817-0.99056 3.158946 4.345981 5.726421 7.315616 5.932106 2.957355 0.191358 4.149507 0.191358 5.728468 2.76088 1.582031 2.572592 5.334495-3.549849 9.499351-7.499811 4.145413-3.960195 8.497535-3.756557 8.497535-3.756557s12.851703-2.772136 22.341844-2.969635c9.492188-0.198521 25.118074 5.731538 29.259394 9.087982 4.166903 3.356444 3.564175 0.589424 10.283204 2.568499 6.723122 1.986237 10.673084 1.38965 14.632255-1.381463 3.960195-2.761903 9.093099 0.402159 13.239536-2.968611 4.161786-3.357468 5.342682 0.599657 12.262278-3.357468 6.921643-3.948939 33.214473-8.499581 41.7161-11.463076 8.510838-2.969635 20.171412-8.496511 25.112957-11.067057 4.935406-2.570545 11.274788-1.382487 13.638625-5.550413 2.369977-4.143367 15.626909-5.731538 18.000979-5.122671 2.367931 0.584308 1.973958-1.198292 0.394996-5.148253-1.579985-3.961218 1.190105-4.945639-0.800225-9.29162-1.968841-4.355191 1.984191-4.355191 0.207731-7.904017-1.781576-3.574409 2.77623-4.1536 2.77623-4.1536s-3.773953-15.027252-6.538927-30.655184c-2.76395-15.620769 3.549849-59.316967 3.960195-72.745814 0.394996-13.450337 0.783853-41.320081-0.599657-44.289716-1.38044-2.963495-3.360538-0.989537-12.266371-4.347005C863.838765 129.641639 864.04752 117.77538 864.04752 117.77538"  /></svg>