<?xml version="1.0" standalone="no"?><!DOCTYPE svg PUBLIC "-//W3C//DTD SVG 1.1//EN" "http://www.w3.org/Graphics/SVG/1.1/DTD/svg11.dtd"><svg class="icon" width="200px" height="200.00px" viewBox="0 0 1024 1024" version="1.1" xmlns="http://www.w3.org/2000/svg"><path fill="#ffffff" d="M515.584 798.208L179.2 939.52c-13.824 6.144-30.208 0-36.352-13.824-1.536-3.584-2.56-7.168-2.56-11.264V139.264c0.512-18.432 15.36-33.28 34.304-32.768h684.032c18.944 0 33.792 14.848 34.304 32.768v775.68c0 9.216-4.608 17.408-12.288 22.528s-17.92 6.144-26.624 2.56l-338.432-141.824z m327.68 85.504V175.104c-0.512-11.776-9.728-20.48-21.504-20.48H209.408c-11.776 0-20.992 9.216-21.504 20.48v709.12l327.68-138.752 327.68 138.24z m-328.192-241.664L378.88 706.048c-8.704 4.096-18.944 0.512-23.552-8.192-1.536-3.072-2.048-6.656-1.536-9.728l18.944-149.504-102.4-109.568c-6.656-7.168-6.144-17.92 0.512-24.576 2.56-2.048 5.632-4.096 8.704-4.608l146.944-28.672L499.2 240.64c4.608-8.704 15.36-11.776 23.552-7.168 3.072 1.536 5.632 4.096 7.168 7.168l72.704 131.584 146.944 27.648c9.728 1.536 15.872 10.752 13.824 20.48-0.512 3.072-2.048 6.144-4.608 8.704l-102.4 110.592 18.944 148.48c1.024 9.728-5.632 18.432-15.36 19.456-3.072 0.512-6.656 0-9.728-1.536l-135.168-64z m106.496-1.536l-13.312-103.936c-1.024-8.192 2.048-16.896 7.68-23.04l71.68-77.312-101.888-19.968c-8.192-1.536-15.36-6.656-19.968-14.336l-51.2-92.16-50.176 92.16c-4.096 7.68-11.264 12.8-19.968 14.848l-102.4 19.456 71.68 77.312c5.632 6.144 8.704 14.848 7.68 23.04l-13.312 103.936 94.72-44.032c7.68-3.584 16.896-3.584 24.576 0l94.208 44.032z" /></svg>