<?xml version="1.0" standalone="no"?><!DOCTYPE svg PUBLIC "-//W3C//DTD SVG 1.1//EN" "http://www.w3.org/Graphics/SVG/1.1/DTD/svg11.dtd"><svg class="icon" width="200px" height="191.76px" viewBox="0 0 1068 1024" version="1.1" xmlns="http://www.w3.org/2000/svg"><path fill="#ffffff" d="M613.487304 0c-72.704 0-57.522087 58.212174-63.220869 68.229565 0 187.792696-200.347826 333.022609-200.347826 333.022609v529.586087c0 51.95687 73.97287 70.745043 100.530087 70.745043h404.546782c37.843478 0 69.008696-98.905043 69.008696-98.905043 99.884522-337.408 99.884522-438.182957 99.884522-438.182957a62.909217 62.909217 0 0 0-63.22087-62.597565H687.460174C791.774609 19.389217 613.487304 0 613.487304 0z m-376.208695 401.252174H77.913043a33.057391 33.057391 0 0 0-23.663304 9.305043A32.411826 32.411826 0 0 0 44.521739 433.797565l33.391304 533.971478a32.990609 32.990609 0 0 0 9.794783 24.086261 33.658435 33.658435 0 0 0 24.331131 9.705739h139.709217a24.665043 24.665043 0 0 0 29.072696-22.528V441.945043a39.268174 39.268174 0 0 0-11.642435-29.161739 40.069565 40.069565 0 0 0-29.451131-11.53113h-2.404174z m0 0"  /></svg>