<?xml version="1.0" standalone="no"?><!DOCTYPE svg PUBLIC "-//W3C//DTD SVG 1.1//EN" "http://www.w3.org/Graphics/SVG/1.1/DTD/svg11.dtd"><svg class="icon" width="200px" height="200.00px" viewBox="0 0 1024 1024" version="1.1" xmlns="http://www.w3.org/2000/svg"><path d="M916.703967 598.149339h-4.791861A62.502543 62.502543 0 0 1 889.202848 479.186165a367.098271 367.098271 0 0 0-174.798779-199.383113 203.966633 203.966633 0 0 1-49.168667 71.669583 252.301933 252.301933 0 0 0-257.302136 11.667141 204.383316 204.383316 0 0 1-67.502747-97.087284l-1.250051-3.125127c-25.001017 8.125331-46.876907 15.833978-61.044151 20.834181-72.711292-30.001221-123.546694-43.126755-168.131841-37.918209a6.458596 6.458596 0 0 0-1.875076 12.083825c41.668362 20.834181 47.710275 72.086267 65.836012 111.462869-52.91882 51.668769-57.919023 89.378637-67.294405 157.089725H69.377823c-49.793693 0-69.377823 41.668362-69.377823 91.878738v62.502544c0 50.835402 19.58413 91.878739 69.377823 91.878738h22.917599c51.668769 153.131231 233.55117 235.009563 424.183927 235.009563C750.030519 1010.24944 920.45412 875.035605 920.45412 669.193896a649.193082 649.193082 0 0 0-3.750153-71.044557" fill="#F4ADC9" /><path d="M277.927976 501.478739A43.543438 43.543438 0 1 1 234.592879 458.351984a43.75178 43.75178 0 0 1 43.335097 44.168464" fill="#FFFFFF" /><path d="M920.45412 669.193896a17.709054 17.709054 0 0 1 0-35.209766A70.002848 70.002848 0 0 0 989.831943 562.522889a17.500712 17.500712 0 1 1 34.793082 0 104.170905 104.170905 0 0 1-104.170905 105.83764" fill="#E685A5" /><path d="M1007.332655 580.856968a17.500712 17.500712 0 0 1-17.500712-17.500712 70.002848 70.002848 0 0 0-69.377823-70.627873 17.709054 17.709054 0 0 1 0-35.418108 104.170905 104.170905 0 0 1 104.170905 106.045981 17.29237 17.29237 0 0 1-17.29237 17.500712" fill="#E685A5" /><path d="M911.703764 616.275076a79.586572 79.586572 0 1 1 78.128179-79.37823 78.961546 78.961546 0 0 1-78.128179 79.37823m0-123.546693a44.168464 44.168464 0 1 0 43.543438 44.168463 43.960122 43.960122 0 0 0-43.543438-44.168463" fill="#E685A5" /><path d="M971.497864 544.813835a17.29237 17.29237 0 0 1-7.083622-1.458392 17.917396 17.917396 0 0 1-8.542014-22.500916 89.79532 89.79532 0 0 0 0-72.919634 17.709054 17.709054 0 0 1 8.750356-23.334283 17.29237 17.29237 0 0 1 22.917599 8.958698 126.255137 126.255137 0 0 1 0 102.087488 17.29237 17.29237 0 0 1-15.833978 10.208748M846.076094 876.493998a369.598372 369.598372 0 0 1-168.340184 109.379451l5.000204 17.29237a28.959512 28.959512 0 0 0 27.709461 20.834181h104.170905a59.169074 59.169074 0 0 0 55.002238-78.961546zM155.631333 878.577416l-27.917803 71.252899a53.960529 53.960529 0 0 0 49.377009 74.169685h117.088098a18.750763 18.750763 0 0 0 17.29237-11.875483l12.500509-32.084639a408.974975 408.974975 0 0 1-168.340183-101.462462M493.145066 955.455544A434.601017 434.601017 0 0 1 310.429298 916.703967a17.709054 17.709054 0 0 1-8.750356-23.334282 17.29237 17.29237 0 0 1 22.917599-8.958698 404.599797 404.599797 0 0 0 212.300305 34.168057 17.29237 17.29237 0 0 1 18.750763 16.042319 17.500712 17.500712 0 0 1-15.833977 19.167447c-15.833978 1.458393-31.459613 2.083418-46.668566 2.083418M727.11292 416.683622a17.500712 17.500712 0 0 1-12.292167-5.000204 236.051272 236.051272 0 0 0-337.722075 0 17.29237 17.29237 0 0 1-24.584334 0 17.709054 17.709054 0 0 1 0-25.001017 270.844354 270.844354 0 0 1 386.890742 0 18.125738 18.125738 0 0 1 0 25.001017 17.500712 17.500712 0 0 1-12.292166 5.000204" fill="#E685A5" /><path d="M393.974364 351.472635a270.844354 270.844354 0 0 1 283.553205-12.500509 201.049847 201.049847 0 1 0-347.514141-135.83886 203.966633 203.966633 0 0 0 63.960936 148.339369" fill="#FFD949" /><path d="M465.227263 317.096236a272.094405 272.094405 0 0 1 140.422381-4.58352 130.213632 130.213632 0 1 0-140.422381 5.625229" fill="#F4BF1A" /></svg>