<?xml version="1.0" standalone="no"?><!DOCTYPE svg PUBLIC "-//W3C//DTD SVG 1.1//EN" "http://www.w3.org/Graphics/SVG/1.1/DTD/svg11.dtd"><svg class="icon" width="200px" height="200.00px" viewBox="0 0 1024 1024" version="1.1" xmlns="http://www.w3.org/2000/svg"><path fill="#ffffff" d="M824.95488 88.76032h-573.44a122.88 122.88 0 0 0-122.88 122.88v573.44a122.88 122.88 0 0 0 122.88 122.88h573.44a122.88 122.88 0 0 0 122.88-122.88v-573.44a122.88 122.88 0 0 0-122.88-122.88zM579.09248 378.73664l-0.38912-0.38912a16.91648 16.91648 0 0 1 24.28928-23.51104l89.3952 85.21728c1.37216 1.37216 2.4576 2.94912 3.25632 4.73088a16.83456 16.83456 0 0 1-10.3424 26.2144l-82.28864 71.7824c-0.08192 0.08192-0.18432 0.22528-0.3072 0.3072a16.896 16.896 0 1 1-23.59296-24.20736l58.04032-47.53408h-127.0784c-54.35392 0-98.54976 41.84064-98.54976 93.24544v65.55648a16.87552 16.87552 0 0 1-33.75104 0v-65.55648c0-70.06208 59.33056-127.05792 132.32128-127.05792h132.05504l-63.05792-58.79808z m184.4224 230.37952c0 63.13984-53.16608 114.54464-118.4768 114.54464h-213.6064c-65.3312 0-118.4768-51.36384-118.4768-114.54464V394.77248c0-67.09248 53.1456-121.73312 118.4768-121.69216h37.82656a16.87552 16.87552 0 0 1 0 33.792h-37.82656c-46.67392 0-84.66432 39.46496-84.66432 87.90016v214.36416c0 44.52352 37.9904 80.77312 84.66432 80.77312h213.6064c46.67392 0 84.66432-36.2496 84.66432-80.77312v-43.78624a16.87552 16.87552 0 0 1 33.792 0v43.76576z"  /></svg>