<?xml version="1.0" standalone="no"?><!DOCTYPE svg PUBLIC "-//W3C//DTD SVG 1.1//EN" "http://www.w3.org/Graphics/SVG/1.1/DTD/svg11.dtd"><svg class="icon" width="200px" height="200.00px" viewBox="0 0 1024 1024" version="1.1" xmlns="http://www.w3.org/2000/svg"><path d="M513.73 862.02l-13.91-9.41c-3.62-2.45-89.58-60.85-180.13-143.59C195.5 595.53 126.71 495.28 115.24 411.05c-6.59-48.42 5.59-91.2 36.22-127.17 50.94-59.83 109.48-91.18 173.97-93.17 85.64-2.67 157.38 47.82 189.78 75.16 33.14-29.46 108.34-85.63 195.4-80.86 62.55 3.43 118.01 37.13 164.84 100.18 29.17 39.28 39.49 84.98 30.66 135.84-14.81 85.33-83.5 184.21-204.16 293.89-88.11 80.1-170.78 135.48-174.26 137.79l-13.96 9.31zM331.87 240.6c-1.73 0-3.45 0.03-5.18 0.08-49.68 1.63-95.83 27.06-137.16 75.6-21.3 25.02-29.4 53.8-24.75 87.99 9.69 71.2 74.76 163.67 188.18 267.42 67.01 61.29 132.99 109.87 160.94 129.76 62.62-44.15 315.57-231.15 342.95-389.01 6.48-37.34-0.57-69.21-21.54-97.45-37.49-50.48-80.29-77.41-127.22-80.05-91.51-5.17-173.37 81.31-174.19 82.18l-17.98 19.25-18.28-18.9c-0.76-0.78-75.71-76.87-165.77-76.87z" fill="#565656" /></svg>