<?xml version="1.0" standalone="no"?><!DOCTYPE svg PUBLIC "-//W3C//DTD SVG 1.1//EN" "http://www.w3.org/Graphics/SVG/1.1/DTD/svg11.dtd"><svg class="icon" width="200px" height="200.00px" viewBox="0 0 1024 1024" version="1.1" xmlns="http://www.w3.org/2000/svg"><path d="M257.39 658.75c201.64 27.11 230.35 19.87 323.92 0.45 33.15-6.88 73.28-30.36 98.26-53.07 13.51-12.29 25.43-50.77 25.79-59.13a462.68 462.68 0 0 0-0.73-51.07c-25.69-175.57-223.81-115.87-223.81-115.87l-100.2 17.24-16.91 1.31-98.48 88.87z" fill="#F2C2C2" /><path d="M478.37 685.82c-55.69 0-124.11-5.67-222-18.84a8.25 8.25 0 0 1-7.07-8.62l7.83-171.27a8.36 8.36 0 0 1 2.74-5.83l98.48-88.87a8.08 8.08 0 0 1 4.78-2.06l16.54-1.28 99.6-17.14c8.46-2 93.38-33.35 174.6 23.1 32.7 22.72 52.5 56.26 58.86 99.67l0.06 0.54a469.52 469.52 0 0 1 0.75 52.12c-0.43 9.82-12.85 50.74-28.51 65-23.22 21.12-65.06 47.34-102.06 55-49.46 10.25-46.49 18.48-104.6 18.48zM265.88 651.5c192.3 25.51 220.06 19 313.8-0.44 29.17-6 68-27.08 94.47-51.13 11.15-10.15 22.75-45.78 23.08-53.32a462.34 462.34 0 0 0-0.69-49.76c-5.7-38.5-23.14-68.14-51.85-88.1-76.22-53-160.72-20.91-162-20.6a4 4 0 0 1-0.48 0.09L382 405.49a6.23 6.23 0 0 1-0.74 0.09l-14.18 1.1-93.88 84.69zM320.32 348.53a7.76 7.76 0 0 1-2.66-0.46l-66.8-23.58a8.34 8.34 0 0 1-5-10.56 8.1 8.1 0 0 1 10.36-5.13L323 332.38a8.33 8.33 0 0 1 5 10.56 8.14 8.14 0 0 1-7.68 5.59zM407.17 356.74a8.17 8.17 0 0 1-7.84-6.08 8.32 8.32 0 0 1 5.67-10.23l78.35-22.27a8.12 8.12 0 0 1 10 5.77 8.32 8.32 0 0 1-5.65 10.23l-78.36 22.27a7.93 7.93 0 0 1-2.17 0.31z" fill="#231815" /><path d="M374.84 712.15c0 21.34-17 38.64-37.89 38.64s-37.9-17.3-37.9-38.64 16.33-43.89 37.26-43.89 38.53 22.55 38.53 43.89z" fill="#D76E6E" /><path d="M337 759.1c-25.39 0-46-21.06-46-47 0-24.69 18.64-52.19 45.39-52.19S383 687.51 383 712.15c0 25.85-20.67 46.95-46 46.95z m-0.65-82.53c-16.39 0-29.1 19.12-29.1 35.58 0 16.73 13.34 30.34 29.75 30.34s29.75-13.61 29.75-30.34c-0.05-16.15-13.61-35.58-30.45-35.58z" fill="#231815" /><path d="M428.79 720c0 21.34-17 38.65-37.89 38.65S353 741.35 353 720s16.33-43.89 37.26-43.89 38.53 22.56 38.53 43.89z" fill="#D76E6E" /><path d="M390.9 767c-25.39 0-46-21.06-46-47 0-24.69 18.64-52.19 45.4-52.19s46.68 27.55 46.68 52.19c-0.04 25.9-20.69 47-46.08 47z m-0.64-82.53c-16.4 0-29.11 19.12-29.11 35.58 0 16.73 13.34 30.34 29.75 30.34s29.75-13.61 29.75-30.34c0-16.16-13.56-35.62-30.39-35.62z" fill="#231815" /><path d="M562 713.28c0 21.35-17 38.65-37.89 38.65s-37.9-17.3-37.9-38.65 16.33-43.88 37.26-43.88S562 691.94 562 713.28z" fill="#D76E6E" /><path d="M524.15 760.23c-25.39 0-46-21.06-46-47 0-24.68 18.64-52.19 45.4-52.19s46.68 27.56 46.68 52.19c-0.04 25.94-20.7 47-46.08 47z m-0.64-82.53c-16.4 0-29.11 19.13-29.11 35.58 0 16.73 13.34 30.34 29.75 30.34S553.9 730 553.9 713.28c0-16.11-13.56-35.58-30.39-35.58z" fill="#231815" /><path d="M655.82 692.32c0 21.35-17 38.65-37.9 38.65S580 713.67 580 692.32s16.32-43.88 37.25-43.88 38.57 22.56 38.57 43.88z" fill="#D76E6E" /><path d="M617.92 739.27c-25.38 0-46-21.06-46-46.95 0-24.68 18.65-52.19 45.4-52.19S664 667.69 664 692.32c0 25.89-20.69 46.95-46.08 46.95z m-0.64-82.53c-16.39 0-29.11 19.13-29.11 35.58 0 16.73 13.35 30.34 29.75 30.34s29.76-13.61 29.76-30.34c0-16.11-13.56-35.58-30.4-35.58zM799.21 500.94c-39.46 0-71.57-32.74-71.57-73s32.11-73 71.57-73 71.57 32.75 71.57 73-32.11 73-71.57 73z m0-129.37c-30.48 0-55.28 25.29-55.28 56.38s24.8 56.38 55.28 56.38S854.49 459 854.49 428s-24.8-56.43-55.28-56.43z" fill="#231815" /><path d="M709.76 550.07a8.2 8.2 0 0 1-8-6.8 8.29 8.29 0 0 1 6.53-9.67c70.41-13.31 101.37-48.07 101.71-48.42a8.15 8.15 0 0 1 1.84-1.58L843 464c55.16-49.1 56.11-132.65 56.11-133.49a8.23 8.23 0 0 1 8.14-8.28 8.24 8.24 0 0 1 8.12 8.34c0 3.75-1 92.5-62.23 146.42a8.1 8.1 0 0 1-1.06 0.79l-30.84 19.38c-5.88 6.33-39.57 39.47-110 52.79a8.44 8.44 0 0 1-1.48 0.12z" fill="#231815" /><path d="M78.42 558.09a131.3 108.67 0 1 0 262.6 0 131.3 108.67 0 1 0-262.6 0Z" fill="#D76E6E" /><path d="M209.72 675.06c-76.89 0-139.44-52.47-139.44-117s62.55-117 139.44-117 139.44 52.48 139.44 117-62.56 117-139.44 117z m0-217.34c-67.91 0-123.16 45-123.16 100.37s55.25 100.36 123.16 100.36 123.15-45 123.15-100.36-55.24-100.37-123.15-100.37z" fill="#231815" /><path d="M124.35 558.87a15.09 21.62 0 1 0 30.18 0 15.09 21.62 0 1 0-30.18 0Z" fill="#040000" /><path d="M240.61 558.87a15.09 21.62 0 1 0 30.18 0 15.09 21.62 0 1 0-30.18 0Z" fill="#040000" /><path d="M264.16 400.32a48.81 62.88 0 1 0 97.62 0 48.81 62.88 0 1 0-97.62 0Z" fill="#D6EDF5" /><path d="M313 470.79c-31 0-56.25-31.61-56.25-70.47S282 329.86 313 329.86s56.25 31.61 56.25 70.46S344 470.79 313 470.79zM313 345c-22.81 0-41.38 24.8-41.38 55.29s18.57 55.3 41.38 55.3 41.37-24.81 41.37-55.3S335.78 345 313 345z" fill="#231815" /><path d="M382.34 400.32a48.81 62.88 0 1 0 97.62 0 48.81 62.88 0 1 0-97.62 0Z" fill="#D6EDF5" /><path d="M431.15 470.79c-31 0-56.25-31.61-56.25-70.47s25.23-70.46 56.25-70.46 56.25 31.61 56.25 70.46-25.23 70.47-56.25 70.47z m0-125.76c-22.81 0-41.37 24.8-41.37 55.29s18.56 55.3 41.37 55.3 41.37-24.81 41.37-55.3S454 345 431.15 345z" fill="#231815" /><path d="M295.63 402.73a19.27 19.65 0 1 0 38.54 0 19.27 19.65 0 1 0-38.54 0Z" fill="#040000" /><path d="M413.81 402.73a19.27 19.65 0 1 0 38.54 0 19.27 19.65 0 1 0-38.54 0Z" fill="#040000" /></svg>